<svg width="60" height="60" viewBox="0 0 60 60" fill="none" xmlns="http://www.w3.org/2000/svg">
<path d="M30 1.87988C45.533 1.87988 58.125 14.4718 58.125 30.0049C58.125 45.538 45.533 58.1299 30 58.1299C14.467 58.1299 1.875 45.5379 1.875 30.0049C1.875 14.4719 14.467 1.87988 30 1.87988ZM12.7643 47.2406C17.0382 51.5015 22.7454 54.0186 28.7738 54.3015C34.8022 54.5843 40.72 52.6126 45.374 48.7705C50.0281 44.9284 53.085 39.4913 53.9492 33.5184C54.8134 27.5456 53.4228 21.4649 50.0486 16.4613C46.6743 11.4577 41.558 7.88955 35.6967 6.45216C29.8353 5.01476 23.6487 5.81108 18.3424 8.68593C13.0361 11.5608 8.99019 16.3082 6.99302 22.0032C4.99584 27.6982 5.19049 33.9328 7.53902 39.4921C8.76304 42.3887 10.5376 45.0202 12.7643 47.2406Z" fill="white"/>
<path d="M28.0536 19.3345L30.7054 16.6829L44.0273 30.0049L30.7054 43.3268L28.0536 40.6752L36.849 31.8799H14.8834V28.1299H36.849L28.0536 19.3345Z" fill="white"/>
</svg>
