<svg width="60" height="60" viewBox="0 0 60 60" fill="none" xmlns="http://www.w3.org/2000/svg">
<path d="M30 1.87988C14.467 1.87988 1.875 14.4718 1.875 30.0049C1.875 45.538 14.467 58.1299 30 58.1299C45.533 58.1299 58.125 45.5379 58.125 30.0049C58.125 14.4719 45.533 1.87988 30 1.87988ZM47.2357 47.2406C42.9618 51.5015 37.2546 54.0186 31.2262 54.3015C25.1978 54.5843 19.28 52.6126 14.626 48.7705C9.9719 44.9284 6.91496 39.4913 6.05081 33.5184C5.18665 27.5456 6.57717 21.4649 9.95143 16.4613C13.3257 11.4577 18.442 7.88955 24.3033 6.45216C30.1647 5.01476 36.3513 5.81108 41.6576 8.68593C46.9639 11.5608 51.0098 16.3082 53.007 22.0032C55.0042 27.6982 54.8095 33.9328 52.461 39.4921C51.237 42.3887 49.4624 45.0202 47.2357 47.2406Z" fill="white"/>
<path d="M31.9464 19.3345L29.2946 16.6829L15.9727 30.0049L29.2946 43.3268L31.9464 40.6752L23.151 31.8799H45.1166V28.1299H23.151L31.9464 19.3345Z" fill="white"/>
</svg>
