<svg width="40" height="40" viewBox="0 0 40 40" fill="none" xmlns="http://www.w3.org/2000/svg">
<path d="M33.2869 6.79128C29.7889 3.29328 25.0446 1.32813 20.0977 1.32812C15.1507 1.32813 10.4064 3.29328 6.90844 6.79128C3.41044 10.2893 1.44528 15.0336 1.44528 19.9805C1.44528 24.9274 3.41044 29.6717 6.90844 33.1697C10.4064 36.6677 15.1507 38.6329 20.0977 38.6329C25.0446 38.6329 29.7889 36.6677 33.2869 33.1697C36.7849 29.6717 38.75 24.9274 38.75 19.9805C38.75 15.0336 36.7849 10.2893 33.2869 6.79128ZM20.0977 36.1328C11.1914 36.1328 3.94531 28.8869 3.94531 19.9805C3.94531 11.0741 11.1912 3.82815 20.0977 3.82815C29.0041 3.82815 36.25 11.0741 36.25 19.9805C36.25 28.8869 29.0041 36.1328 20.0977 36.1328Z" fill="url(#paint0_linear_212_296)"/>
<path d="M17.2867 23.8913L11.5513 18.156L9.78359 19.9237L17.2867 27.4268L30.3727 14.341L28.6048 12.5732L17.2867 23.8913Z" fill="url(#paint1_linear_212_296)"/>
<defs>
<linearGradient id="paint0_linear_212_296" x1="43.9505" y1="44.3489" x2="-47.6247" y2="37.3252" gradientUnits="userSpaceOnUse">
<stop stop-color="#BE8D34"/>
<stop offset="1" stop-color="#FEE3B2"/>
</linearGradient>
<linearGradient id="paint1_linear_212_296" x1="43.9505" y1="44.3489" x2="-47.6247" y2="37.3252" gradientUnits="userSpaceOnUse">
<stop stop-color="#BE8D34"/>
<stop offset="1" stop-color="#FEE3B2"/>
</linearGradient>
</defs>
</svg>
