<svg width="40" height="40" viewBox="0 0 40 40" fill="none" xmlns="http://www.w3.org/2000/svg">
<path d="M36.875 10H29.0495C29.8551 8.79668 30.1653 7.32891 29.9155 5.90252C29.6657 4.47613 28.8751 3.20114 27.7085 2.34322C26.5419 1.48529 25.0893 1.11059 23.6532 1.2972C22.2172 1.48381 20.9086 2.21733 20 3.34492C19.0914 2.21733 17.7828 1.48381 16.3468 1.2972C14.9107 1.11059 13.4581 1.48529 12.2915 2.34322C11.1249 3.20114 10.3343 4.47613 10.0845 5.90252C9.83473 7.32891 10.1449 8.79668 10.9505 10H3.125C2.6279 10.0006 2.15132 10.1983 1.79981 10.5498C1.44831 10.9013 1.25058 11.3779 1.25 11.875V36.9966C1.25 37.9634 2.09117 38.75 3.125 38.75H36.875C37.9088 38.75 38.75 37.9634 38.75 36.9966V11.875C38.7494 11.3779 38.5517 10.9013 38.2002 10.5498C37.8487 10.1983 37.3721 10.0006 36.875 10ZM24.375 3.75C25.2038 3.75 25.9987 4.07924 26.5847 4.66529C27.1708 5.25134 27.5 6.0462 27.5 6.875C27.5 7.7038 27.1708 8.49866 26.5847 9.08471C25.9987 9.67076 25.2038 10 24.375 10H21.25V6.875C21.2509 6.04648 21.5805 5.25217 22.1663 4.66632C22.7522 4.08047 23.5465 3.75093 24.375 3.75ZM12.5 6.875C12.5 6.0462 12.8292 5.25134 13.4153 4.66529C14.0013 4.07924 14.7962 3.75 15.625 3.75C16.4538 3.75 17.2487 4.07924 17.8347 4.66529C18.4208 5.25134 18.75 6.0462 18.75 6.875V10H15.625C14.7965 9.99907 14.0022 9.66953 13.4163 9.08368C12.8305 8.49783 12.5009 7.70351 12.5 6.875ZM3.75 36.25V20H15V36.25H3.75ZM17.5 36.25V20H22.5V36.25H17.5ZM36.25 36.25H25V20H36.25V36.25ZM3.75 17.5V12.5H36.25V17.5H3.75Z" fill="#F5F5F5"/>
</svg>
