<?xml version="1.0" standalone="no"?>
<!DOCTYPE svg PUBLIC "-//W3C//DTD SVG 20010904//EN"
 "http://www.w3.org/TR/2001/REC-SVG-20010904/DTD/svg10.dtd">
<svg version="1.0" xmlns="http://www.w3.org/2000/svg"
 width="260.000000pt" height="260.000000pt" viewBox="0 0 260.000000 260.000000"
 preserveAspectRatio="xMidYMid meet">
<metadata>
Created by potrace 1.14, written by Peter Selinger 2001-2017
</metadata>
<g transform="translate(0.000000,260.000000) scale(0.100000,-0.100000)"
fill="#000000" stroke="none">
<path d="M1820 2575 c0 -20 -5 -25 -25 -25 -20 0 -25 -5 -25 -25 0 -21 -5 -25
-30 -25 -25 0 -30 -4 -30 -25 0 -20 -5 -25 -25 -25 -21 0 -25 -5 -25 -30 0
-25 -4 -30 -25 -30 -20 0 -25 -5 -25 -25 0 -20 -5 -25 -25 -25 -20 0 -25 -5
-25 -25 0 -20 -5 -25 -25 -25 -20 0 -25 -5 -25 -25 0 -21 -5 -25 -30 -25 -25
0 -30 -4 -30 -25 0 -20 -5 -25 -25 -25 -21 0 -25 -5 -25 -30 0 -25 -4 -30 -25
-30 -20 0 -25 -5 -25 -25 0 -20 -5 -25 -25 -25 -20 0 -25 -5 -25 -25 0 -20 -5
-25 -25 -25 -20 0 -25 -5 -25 -25 l0 -25 105 0 105 0 0 -25 c0 -22 4 -25 38
-25 20 0 54 -3 75 -6 31 -6 37 -11 37 -30 0 -22 4 -24 50 -24 47 0 50 -2 50
-25 0 -21 5 -25 30 -25 25 0 30 -4 30 -25 0 -20 5 -25 25 -25 21 0 25 -5 25
-30 0 -32 -3 -33 -62 -24 -32 6 -38 11 -38 30 0 20 -5 24 -30 24 -25 0 -30 4
-30 25 0 23 -3 25 -50 25 -47 0 -50 2 -50 25 0 25 -1 25 -80 25 -79 0 -80 0
-80 25 l0 25 -100 0 -100 0 0 -25 c0 -24 -3 -25 -55 -25 -52 0 -55 -1 -55 -25
0 -20 -5 -25 -25 -25 -20 0 -25 -5 -25 -25 0 -20 -5 -25 -25 -25 -20 0 -25 -5
-25 -25 0 -21 -5 -25 -30 -25 -25 0 -30 -4 -30 -25 0 -20 -5 -25 -25 -25 -21
0 -25 -5 -25 -30 0 -25 -4 -30 -25 -30 -20 0 -25 -5 -25 -25 0 -20 -5 -25 -25
-25 -20 0 -25 -5 -25 -25 0 -20 -5 -25 -25 -25 -20 0 -25 -5 -25 -25 0 -20 -5
-25 -25 -25 -21 0 -25 -5 -25 -30 0 -25 -4 -30 -25 -30 l-25 0 0 -205 0 -205
26 0 c25 0 26 -2 20 -38 -3 -20 -6 -43 -6 -49 0 -24 -38 -14 -42 10 -2 14 -11
23 -24 25 -29 4 -34 34 -34 213 l0 149 -25 0 c-20 0 -25 -5 -25 -25 0 -20 -5
-25 -25 -25 -20 0 -25 -5 -25 -25 0 -21 -5 -25 -30 -25 -25 0 -30 -4 -30 -25
0 -20 -5 -25 -25 -25 -21 0 -25 -5 -25 -30 0 -25 -4 -30 -25 -30 -20 0 -25 -5
-25 -25 0 -20 -5 -25 -25 -25 -20 0 -25 -5 -25 -25 0 -20 -5 -25 -25 -25 -20
0 -25 -5 -25 -25 0 -21 -5 -25 -30 -25 -25 0 -30 -4 -30 -25 0 -20 -5 -25 -25
-25 -21 0 -25 -5 -25 -30 0 -25 -4 -30 -25 -30 -20 0 -25 -5 -25 -25 0 -20 -5
-25 -25 -25 l-25 0 0 -390 0 -390 1300 0 1300 0 0 1300 0 1300 -390 0 -390 0
0 -25z m-520 -885 c0 -68 1 -70 25 -70 24 0 25 -3 25 -55 0 -51 2 -55 24 -55
21 0 25 -6 31 -50 6 -40 11 -50 26 -50 16 0 19 -8 19 -55 0 -54 0 -55 30 -55
25 0 30 -4 30 -25 0 -20 5 -25 25 -25 23 0 25 -3 25 -50 0 -46 2 -50 24 -50
19 0 25 -6 28 -27 2 -20 9 -29 25 -31 17 -3 23 -12 28 -53 l7 -49 49 0 49 0 0
-55 0 -55 50 0 50 0 0 -50 0 -50 55 0 55 0 0 -105 0 -105 -30 0 -30 0 0 80 c0
73 -2 80 -20 80 -17 0 -20 -7 -20 -49 0 -28 -4 -52 -8 -55 -5 -3 -41 -2 -80 1
-60 5 -72 9 -72 24 0 12 -9 19 -27 21 -22 2 -29 9 -31 31 -3 25 -6 27 -53 27
l-49 0 0 49 0 50 -52 3 -53 3 -3 53 -3 52 -50 0 -49 0 0 74 0 75 -52 3 -53 3
-3 280 c-2 154 0 304 3 333 6 47 9 52 31 52 23 0 24 -3 24 -70z m570 -25 c0
-41 -2 -45 -25 -45 -23 0 -25 4 -25 45 0 41 2 45 25 45 23 0 25 -4 25 -45z
m50 -80 c0 -20 -5 -25 -25 -25 -20 0 -25 5 -25 25 0 20 5 25 25 25 20 0 25 -5
25 -25z m50 -125 c0 -43 -3 -50 -20 -50 -17 0 -20 7 -20 50 0 43 3 50 20 50
17 0 20 -7 20 -50z m-770 -265 l0 -265 -30 0 -30 0 0 265 0 265 30 0 30 0 0
-265z m820 50 c0 -148 -1 -155 -20 -155 -19 0 -20 7 -20 155 0 148 1 155 20
155 19 0 20 -7 20 -155z m-926 13 c4 -24 4 -141 0 -260 l-7 -218 -23 0 -24 0
0 260 0 260 24 0 c20 0 24 -6 30 -42z m-104 -343 l0 -235 -24 0 c-19 0 -24 6
-30 38 -8 50 -8 417 1 425 3 4 17 7 30 7 l23 0 0 -235z m-106 88 c8 -49 8
-297 0 -345 -6 -32 -11 -38 -30 -38 l-24 0 0 210 0 210 24 0 c19 0 24 -6 30
-37z m1086 -38 c0 -18 -5 -25 -20 -25 -15 0 -20 7 -20 25 0 18 5 25 20 25 15
0 20 -7 20 -25z m-1190 -210 l0 -175 -24 0 c-28 0 -36 28 -36 131 0 62 -2 69
-20 69 -19 0 -20 -7 -20 -105 l0 -105 -55 0 c-52 0 -55 -1 -55 -25 0 -20 -5
-25 -25 -25 -20 0 -25 -5 -25 -25 0 -20 -5 -25 -25 -25 l-25 0 0 130 0 130 50
0 c47 0 50 2 50 25 0 20 5 25 25 25 20 0 25 5 25 25 0 23 3 25 49 25 l49 0 7
50 c6 44 10 50 31 50 l24 0 0 -175z m520 105 c0 -25 4 -30 25 -30 20 0 25 -5
25 -25 0 -20 5 -25 25 -25 18 0 25 -5 25 -19 0 -10 3 -33 6 -50 l7 -31 -137 0
c-137 0 -137 0 -134 23 2 14 11 23 25 25 17 3 23 12 28 53 6 43 10 49 31 49
20 0 24 5 24 30 0 25 4 30 25 30 21 0 25 -5 25 -30z m780 -235 c0 -104 0 -105
-24 -105 -21 0 -25 6 -31 51 -4 28 -4 75 0 105 6 49 9 54 31 54 24 0 24 0 24
-105z"/>
</g>
</svg>
