<svg width="59" height="45" viewBox="0 0 59 45" fill="none" xmlns="http://www.w3.org/2000/svg">
<g opacity="0.5">
<path d="M0.285767 43.7358C0.338427 43.7281 0.388867 43.7094 0.433834 43.681C0.4788 43.6526 0.517296 43.6152 0.546838 43.5711C0.614723 43.4698 0.676068 43.3643 0.730499 43.2553L3.08014 38.3365C3.13934 38.2277 3.19095 38.1264 3.23193 38.0343C3.27323 37.9605 3.2971 37.8783 3.30175 37.794C3.30516 37.7591 3.29873 37.7239 3.28318 37.6924C3.26763 37.6609 3.24358 37.6343 3.21371 37.6157C3.1537 37.582 3.08936 37.5566 3.02246 37.5401V37.3135H5.17478V37.5401C5.11364 37.558 5.05421 37.5813 4.9972 37.6096C4.96577 37.6283 4.94054 37.6557 4.92462 37.6884C4.9087 37.7212 4.90279 37.7579 4.90764 37.794C4.90819 37.8635 4.92372 37.932 4.95318 37.995C4.98202 38.063 5.02603 38.1461 5.08523 38.2609L7.72327 43.4064C7.75729 43.4904 7.81739 43.5613 7.89478 43.6089C7.97479 43.6558 8.05739 43.6982 8.1422 43.7358V43.9625H5.91095V43.7358C5.95562 43.7322 5.99904 43.7193 6.03845 43.698C6.06107 43.6885 6.08035 43.6725 6.09386 43.6521C6.10736 43.6316 6.11449 43.6077 6.11434 43.5832C6.10552 43.4677 6.07077 43.3556 6.01264 43.2553L5.52996 42.3199H2.43202L1.97666 43.2175C1.91032 43.3347 1.86704 43.4634 1.84916 43.5968C1.84916 43.689 1.92961 43.7358 2.0905 43.7358V43.9625H0.285767V43.7358ZM5.07309 41.3845L4.01059 39.0316L2.81755 41.3845H5.07309Z" fill="#EFEFEF"/>
<path d="M11.3464 41.8768L11.4739 41.9403C11.4724 42.0105 11.4897 42.0799 11.524 42.1413C11.6123 42.2703 11.7325 42.3744 11.8731 42.4435C12.0637 42.5477 12.2634 42.6347 12.4696 42.7034C12.7004 42.7803 12.9362 42.8414 13.1754 42.8863C13.3928 42.9301 13.6139 42.9534 13.8357 42.9558C13.9784 42.9558 14.1651 42.9452 14.3943 42.9241C14.6224 42.9031 14.8478 42.8585 15.0667 42.7911C15.2719 42.7315 15.4654 42.6374 15.6389 42.513C15.7146 42.461 15.7763 42.3912 15.8184 42.3097C15.8605 42.2282 15.8818 42.1377 15.8802 42.0461C15.8855 41.9609 15.8676 41.876 15.8283 41.8001C15.789 41.7243 15.7299 41.6605 15.6571 41.6154C15.4775 41.509 15.2792 41.4378 15.0727 41.4054C14.7996 41.3598 14.5238 41.3326 14.247 41.3238C13.9435 41.3117 13.6282 41.2925 13.3014 41.2663C12.9841 41.2418 12.6684 41.1999 12.3558 41.1409C12.0654 41.0873 11.7862 40.9851 11.5301 40.8387C11.2903 40.7007 11.0893 40.5047 10.9457 40.269C10.7861 39.9815 10.7094 39.6557 10.7241 39.3275C10.7274 39.0624 10.7912 38.8014 10.9108 38.5644C11.0439 38.2996 11.2379 38.0697 11.4769 37.8935C11.7683 37.6815 12.0945 37.5215 12.4408 37.4205C12.8842 37.2907 13.3447 37.2285 13.8068 37.2361C14.1988 37.2316 14.5903 37.2655 14.9756 37.3374C15.2645 37.3946 15.5503 37.4667 15.8317 37.5534C16.073 37.629 16.2764 37.7046 16.4388 37.768C16.5687 37.8276 16.7088 37.862 16.8517 37.8693C16.9428 37.878 17.0338 37.8509 17.1051 37.7937L17.2569 37.8935L16.3811 39.4741L16.2536 39.4242C16.2419 39.3209 16.2078 39.2214 16.1535 39.1326C16.0636 39.0095 15.9488 38.9065 15.8165 38.8304C15.6419 38.7248 15.4568 38.6376 15.264 38.5704C15.0404 38.4918 14.811 38.4307 14.5779 38.3876C14.3353 38.3413 14.0888 38.318 13.8418 38.3181C13.6482 38.3189 13.4549 38.3335 13.2635 38.3619C13.0798 38.3882 12.8993 38.4327 12.7246 38.4949C12.577 38.5462 12.4409 38.6258 12.3239 38.7291C12.274 38.7746 12.2345 38.8303 12.2083 38.8924C12.1821 38.9544 12.1698 39.0215 12.1721 39.0888C12.1667 39.177 12.1842 39.265 12.223 39.3445C12.2619 39.4239 12.3207 39.492 12.3937 39.5421C12.5716 39.6556 12.7702 39.7331 12.9781 39.7703C13.2504 39.8246 13.5264 39.8584 13.8038 39.8715C14.1074 39.8887 14.4226 39.9098 14.7494 39.935C15.0671 39.9598 15.3829 40.0042 15.6951 40.068C15.9851 40.123 16.264 40.2251 16.5208 40.3702C16.7593 40.5073 16.96 40.7009 17.1051 40.9339C17.2641 41.2145 17.3409 41.5338 17.3268 41.8557C17.3438 42.2444 17.2199 42.6263 16.9776 42.9316C16.741 43.213 16.4438 43.4377 16.1079 43.589C15.7519 43.7517 15.3732 43.8602 14.9847 43.9108C14.6121 43.9631 14.2363 43.9904 13.86 43.9924C13.4537 43.998 13.0476 43.9707 12.6457 43.9108C12.3693 43.8686 12.0974 43.8008 11.8336 43.7083C11.6586 43.6455 11.4868 43.5739 11.3191 43.4938C11.218 43.4374 11.1054 43.4049 10.9897 43.3986C10.956 43.4009 10.9233 43.4113 10.8945 43.4289C10.8657 43.4466 10.8416 43.4709 10.8243 43.4998L10.6467 43.3986L11.3464 41.8768Z" fill="#EFEFEF"/>
<path d="M26.6737 39.3608L26.4187 39.2852C26.4352 39.2365 26.4439 39.1855 26.4445 39.1341C26.438 39.0619 26.4129 38.9925 26.3717 38.9327C26.3305 38.8729 26.2746 38.8247 26.2092 38.7926C26.0235 38.6791 25.8227 38.5922 25.6127 38.5342C25.355 38.4598 25.0915 38.4067 24.825 38.3755C24.5575 38.3433 24.2884 38.3266 24.019 38.3256C23.7031 38.3258 23.3888 38.3705 23.0855 38.4586C22.7864 38.5418 22.5061 38.6813 22.2598 38.8696C22.0125 39.0616 21.813 39.3077 21.6769 39.5889C21.5298 39.9274 21.4538 40.2923 21.4538 40.6611C21.4538 41.0299 21.5298 41.3948 21.6769 41.7333C21.8121 42.0172 22.0116 42.266 22.2598 42.4601C22.5065 42.6474 22.7867 42.7864 23.0855 42.8696C23.3888 42.9577 23.7031 43.0025 24.019 43.0026C24.456 43.0072 24.8924 42.9672 25.3213 42.8832C25.6543 42.817 25.9828 42.7302 26.3049 42.6233V41.5368H24.6792C24.5841 41.53 24.4895 41.5568 24.4121 41.6124C24.3364 41.7054 24.2961 41.8221 24.2983 41.9418H24.0706V40.3218H24.2983C24.2973 40.3726 24.307 40.4229 24.3266 40.4697C24.3462 40.5165 24.3753 40.5588 24.4121 40.5939C24.4943 40.6366 24.5867 40.656 24.6792 40.6498H27.8546V40.878C27.7439 40.8851 27.6359 40.915 27.5374 40.9656C27.512 40.9951 27.4932 41.0296 27.4823 41.0669C27.4713 41.1041 27.4683 41.1432 27.4736 41.1817V42.6143C27.4736 42.6989 27.4979 42.7533 27.5495 42.779L27.7271 42.8666V43.0676C27.4517 43.2595 27.156 43.4207 26.8452 43.5481C26.541 43.6745 26.2267 43.7756 25.9057 43.8504C25.5921 43.9205 25.2733 43.9649 24.9525 43.9834C24.6357 44.0005 24.3246 44.0085 24.019 44.0075C23.4711 44.0142 22.9253 43.9399 22.3994 43.7869C21.9423 43.654 21.5168 43.4304 21.1487 43.1296C20.8044 42.841 20.529 42.4797 20.3427 42.0718C20.1544 41.6211 20.0574 41.1379 20.0574 40.6498C20.0574 40.1617 20.1544 39.6784 20.3427 39.2278C20.5291 38.8169 20.8043 38.4521 21.1487 38.1594C21.5164 37.8534 21.9416 37.6233 22.3994 37.4824C22.9238 37.3211 23.4702 37.242 24.019 37.2482C24.3746 37.2473 24.7298 37.2731 25.0815 37.3253C25.4205 37.3756 25.721 37.4325 25.9831 37.496C26.2457 37.558 26.4627 37.6169 26.6373 37.6728C26.7419 37.7111 26.8503 37.7385 26.9606 37.7544C27.0237 37.7582 27.0863 37.7406 27.1382 37.7045C27.1785 37.6718 27.2211 37.642 27.2657 37.6154L27.4175 37.7045L26.6737 39.3608Z" fill="#EFEFEF"/>
<path d="M30.2028 43.7358C30.2555 43.7282 30.306 43.7096 30.351 43.6812C30.396 43.6529 30.4344 43.6153 30.4638 43.5711C30.5323 43.4702 30.5937 43.3646 30.6475 43.2553L32.9971 38.3365C33.0563 38.2277 33.1095 38.1264 33.1489 38.0343C33.1902 37.9605 33.2141 37.8783 33.2187 37.794C33.2222 37.7591 33.2157 37.7239 33.2002 37.6924C33.1846 37.6609 33.1606 37.6343 33.1307 37.6157C33.0707 37.582 33.0064 37.5566 32.9395 37.5401V37.3135H35.0857V37.5401C35.0246 37.558 34.9651 37.5813 34.9081 37.6096C34.877 37.6285 34.852 37.656 34.8364 37.6887C34.8208 37.7215 34.8151 37.7581 34.8201 37.794C34.8201 37.8634 34.8351 37.9319 34.8641 37.995C34.8929 38.063 34.9385 38.1461 34.9977 38.2609L37.6387 43.4064C37.6732 43.4901 37.7332 43.5609 37.8103 43.6089C37.8904 43.6555 37.973 43.6979 38.0577 43.7358V43.9625H35.8279V43.7358C35.8727 43.7328 35.9163 43.7199 35.9554 43.698C35.9783 43.6888 35.9978 43.6729 36.0114 43.6524C36.0249 43.6319 36.0319 43.6077 36.0313 43.5832C36.0225 43.4677 35.9878 43.3556 35.9296 43.2553L35.4485 42.3199H32.349L31.8937 43.2175C31.8273 43.3347 31.784 43.4634 31.7661 43.5968C31.7661 43.689 31.8466 43.7358 32.0075 43.7358V43.9625H30.2028V43.7358ZM34.9901 41.3845L33.9276 39.0316L32.733 41.3845H34.9901Z" fill="#EFEFEF"/>
<path d="M45.0352 37.3136C45.4064 37.3096 45.7768 37.3456 46.1402 37.4209C46.4426 37.4806 46.7309 37.5965 46.9902 37.7624C47.2223 37.9129 47.4107 38.1213 47.5366 38.3669C47.6717 38.6535 47.7367 38.9678 47.7264 39.2842C47.7264 39.8403 47.5625 40.2664 47.2316 40.5611C46.8516 40.8788 46.39 41.0845 45.8989 41.155L47.5867 43.5577C47.6346 43.6335 47.7103 43.6878 47.7977 43.7088C47.8705 43.7249 47.9448 43.7336 48.0193 43.7345V43.9612H45.6439V43.7345C45.7116 43.7359 45.7788 43.723 45.8412 43.6967C45.8958 43.671 45.9232 43.6378 45.9232 43.5955C45.9203 43.5415 45.903 43.4894 45.8731 43.4444C45.8397 43.3899 45.7881 43.3159 45.7213 43.2237L44.3233 41.2547H42.5019V43.5048C42.4999 43.5378 42.5063 43.5709 42.5207 43.6007C42.535 43.6306 42.5568 43.6564 42.5839 43.6756C42.6777 43.7226 42.7829 43.7425 42.8875 43.733V43.9597H40.6926V43.733C40.937 43.733 41.06 43.6559 41.06 43.5048V37.7624C41.06 37.6113 40.937 37.5343 40.6926 37.5343V37.3076L45.0352 37.3136ZM44.7043 40.2709C44.9591 40.2757 45.2136 40.2524 45.4633 40.2014C45.6353 40.1683 45.7993 40.1021 45.9459 40.0065C46.0563 39.93 46.1443 39.8257 46.2009 39.7043C46.251 39.5862 46.2768 39.4592 46.2768 39.331C46.2768 39.2028 46.251 39.0759 46.2009 38.9578C46.1448 38.836 46.0567 38.7316 45.9459 38.6555C45.7994 38.5594 45.6355 38.4927 45.4633 38.4591C45.2135 38.4089 44.9591 38.3856 44.7043 38.3896H42.508V40.2604L44.7043 40.2709Z" fill="#EFEFEF"/>
<path d="M55.2701 37.3135C55.7118 37.3096 56.1512 37.3775 56.5709 37.5145C56.9679 37.6412 57.3311 37.8554 57.6336 38.1411C57.9361 38.4268 58.17 38.7766 58.3179 39.1647C58.6559 40.1181 58.6559 41.158 58.3179 42.1114C58.1703 42.4995 57.9364 42.8493 57.6339 43.1348C57.3314 43.4203 56.968 43.634 56.5709 43.7601C56.1514 43.8984 55.7119 43.9668 55.2701 43.9626H51.0535V43.7359C51.2493 43.7359 51.3464 43.6588 51.3464 43.5077V37.7654C51.3464 37.6143 51.2493 37.5372 51.0535 37.5372V37.3105L55.2701 37.3135ZM54.7616 42.8761C55.1114 42.8804 55.4605 42.8465 55.8028 42.7748C56.0752 42.7192 56.3287 42.5948 56.539 42.4137C56.744 42.2267 56.8954 41.9889 56.9777 41.7246C57.172 41.0126 57.172 40.262 56.9777 39.55C56.8947 39.286 56.7434 39.0484 56.539 38.861C56.3282 38.6809 56.0749 38.5571 55.8028 38.5013C55.4607 38.4289 55.1114 38.395 54.7616 38.4001H52.7884V42.8761H54.7616Z" fill="#EFEFEF"/>
<path d="M29.2874 0C26.5714 0.000466619 23.8994 0.683729 21.5193 1.98643C19.1392 3.28913 17.1281 5.16908 15.6724 7.45194C14.2167 9.73481 13.3636 12.3467 13.1921 15.0453C13.0207 17.744 13.5365 20.442 14.6917 22.8893L14.8891 22.8183L15.0408 22.6823C13.9199 20.2931 13.4233 17.6607 13.5971 15.0294C13.7709 12.3981 14.6094 9.85316 16.035 7.63068C17.4606 5.40821 19.4269 3.58025 21.7516 2.31642C24.0763 1.05258 26.6839 0.393826 29.3326 0.401281C31.9813 0.408735 34.5852 1.08216 36.9026 2.35906C39.2201 3.63596 41.176 5.47496 42.589 7.70542C44.0019 9.93588 44.826 12.4855 44.9849 15.1178C45.1437 17.75 44.6321 20.3795 43.4976 22.7624C43.6039 22.853 43.7071 22.9482 43.8118 23.0389C44.998 20.591 45.5409 17.8833 45.3894 15.1696C45.238 12.4558 44.3973 9.82469 42.946 7.52262C41.4947 5.22054 39.4803 3.32281 37.0915 2.00712C34.7026 0.691434 32.0175 0.000837619 29.2874 0Z" fill="#EFEFEF"/>
<path d="M45.4935 26.714V31.2565C46.0096 31.5013 46.5211 31.7552 47.0281 32.0227V27.7658C46.509 27.4288 45.999 27.0752 45.4935 26.714Z" fill="#EFEFEF"/>
<path d="M43.0636 30.2036C43.4643 30.3547 43.8635 30.527 44.2581 30.6977V25.8001C43.8534 25.4918 43.4552 25.175 43.0636 24.8496V30.2036Z" fill="#EFEFEF"/>
<path d="M40.6456 29.3391C41.0417 29.466 41.4379 29.596 41.8295 29.735V23.7887C41.4288 23.4351 41.0357 23.0724 40.6456 22.7021V29.3391Z" fill="#EFEFEF"/>
<path d="M38.2473 28.6546C38.6369 28.7554 39.0244 28.8591 39.41 28.9659V21.4782C39.0173 21.0752 38.6298 20.6642 38.2473 20.2451V28.6546Z" fill="#EFEFEF"/>
<path d="M18.8795 28.9721C19.2756 28.8603 19.6718 28.7514 20.0725 28.6502V20.3057C19.6809 20.7328 19.2832 21.1524 18.8795 21.5644V28.9721Z" fill="#EFEFEF"/>
<path d="M16.4813 29.7333C16.8668 29.5973 17.2544 29.4668 17.644 29.3419V22.7745C17.2615 23.1351 16.8739 23.4877 16.4813 23.8323V29.7333Z" fill="#EFEFEF"/>
<path d="M14.0422 30.7001C14.4399 30.5278 14.8421 30.3601 15.2459 30.2014V24.8867C14.8502 25.2121 14.449 25.529 14.0422 25.8372V30.7001Z" fill="#EFEFEF"/>
<path d="M11.278 32.0227C11.782 31.7567 12.292 31.5043 12.8065 31.2671V26.7473C12.3026 27.1039 11.7956 27.453 11.278 27.7854V32.0227Z" fill="#EFEFEF"/>
<path d="M26.153 27.8141C28.1504 27.5783 30.169 27.5829 32.1653 27.8277C30.0403 25.1711 29.1523 23.3396 29.1523 23.3396C29.1523 23.3396 28.2674 25.1651 26.153 27.8141Z" fill="#EFEFEF"/>
<path d="M35.8187 26.7835C36.2134 27.1422 36.6131 27.4877 37.0179 27.8202V18.8243C36.6131 18.3408 36.2149 17.8476 35.8233 17.3449L35.8187 26.7835Z" fill="#EFEFEF"/>
<path d="M33.4008 24.4216C33.7863 24.8357 34.1825 25.2376 34.5832 25.6305V15.6842C34.1785 15.114 33.7843 14.5347 33.4008 13.9464V24.4216Z" fill="#EFEFEF"/>
<path d="M31.0224 21.5418C31.3822 22.0465 31.7647 22.5407 32.1654 23.0242V11.9521C31.7717 11.2841 31.3908 10.6051 31.0224 9.91504V21.5418Z" fill="#EFEFEF"/>
<path d="M29.7883 19.5935V7.46205C29.3299 6.48585 28.8973 5.49101 28.4906 4.47754V19.6449C28.7334 19.2097 28.9565 18.7699 29.1523 18.3257C29.3436 18.7528 29.5556 19.1754 29.7883 19.5935Z" fill="#EFEFEF"/>
<path d="M27.2565 10.1426C26.8832 10.8357 26.4941 11.5233 26.0893 12.2053V23.0931C26.5007 22.5989 26.8938 22.0942 27.2626 21.5819L27.2565 10.1426Z" fill="#EFEFEF"/>
<path d="M23.7154 25.6351C24.0994 25.2618 24.4743 24.8795 24.8477 24.4836V14.167C24.4784 14.7241 24.1009 15.2721 23.7154 15.8111V25.6351Z" fill="#EFEFEF"/>
<path d="M21.3081 27.8048C21.6976 27.4764 22.0887 27.1369 22.4814 26.7863V17.458C22.0979 17.9456 21.7068 18.4256 21.3081 18.8981V27.8048Z" fill="#EFEFEF"/>
</g>
</svg>
