<svg width="69" height="53" viewBox="0 0 69 53" fill="none" xmlns="http://www.w3.org/2000/svg">
<g clip-path="url(#clip0_358_1786)">
<path d="M0 52.6724C0.125781 52.6542 0.233594 52.5814 0.305469 52.4722C0.377344 52.363 0.449219 52.2356 0.521094 52.09L3.30625 46.1748C3.37812 46.0474 3.43203 45.92 3.48594 45.8108C3.53984 45.7016 3.57578 45.6106 3.57578 45.5196C3.57578 45.4104 3.53984 45.3558 3.46797 45.3012C3.39609 45.2648 3.32422 45.2284 3.23438 45.2102V44.9372H5.76797V45.2102C5.69609 45.2284 5.62422 45.2648 5.55234 45.3012C5.48047 45.3376 5.44453 45.4104 5.44453 45.5196C5.44453 45.5924 5.4625 45.6834 5.49844 45.7562C5.53438 45.829 5.58828 45.9382 5.66016 46.0838L8.78672 52.272C8.84062 52.3812 8.9125 52.4722 8.98438 52.5086C9.07422 52.5632 9.16406 52.6178 9.27187 52.6542V52.9272H6.66641V52.6542C6.70234 52.6542 6.75625 52.636 6.81016 52.5996C6.86406 52.5632 6.9 52.5268 6.9 52.454C6.9 52.3448 6.86406 52.2174 6.77422 52.0536L6.19922 50.9251H2.53359L1.99453 51.999C1.88672 52.2174 1.85078 52.363 1.85078 52.454C1.85078 52.5632 1.94062 52.6178 2.13828 52.6178V52.8908H0V52.6724ZM5.66016 49.8513L4.40234 47.012L2.98281 49.8513H5.66016Z" fill="white"/>
<path d="M13.0992 50.4337L13.2429 50.5065C13.2429 50.5975 13.2609 50.6703 13.2969 50.7431C13.3687 50.8705 13.5125 50.9797 13.7101 51.1072C13.9078 51.2164 14.1594 51.3256 14.4109 51.4166C14.6804 51.5076 14.95 51.5804 15.2375 51.635C15.525 51.6896 15.7945 51.726 16.0281 51.726C16.1898 51.726 16.4234 51.7078 16.6929 51.6896C16.9625 51.6714 17.232 51.6168 17.4836 51.5258C17.7351 51.453 17.9687 51.3256 18.1664 51.1982C18.364 51.0526 18.4539 50.8706 18.4539 50.6339C18.4539 50.3973 18.364 50.2335 18.1844 50.1243C18.0047 50.0151 17.7711 49.9241 17.5015 49.8877C17.214 49.8331 16.8906 49.7967 16.5312 49.7967C16.1719 49.7785 15.7945 49.7603 15.4172 49.7239C15.0398 49.6875 14.6625 49.6511 14.3031 49.5783C13.9437 49.5055 13.6203 49.3963 13.3328 49.2143C13.0453 49.0505 12.8117 48.8139 12.65 48.5227C12.4703 48.2315 12.3804 47.8493 12.3804 47.3942C12.3804 47.0848 12.4523 46.7754 12.5961 46.466C12.7398 46.1566 12.9554 45.8836 13.2609 45.6652C13.5664 45.4286 13.9437 45.2466 14.4109 45.101C14.8781 44.9554 15.4172 44.8826 16.0281 44.8826C16.5672 44.8826 17.0164 44.919 17.4117 45.01C17.807 45.0828 18.1484 45.1738 18.4179 45.2648C18.7054 45.3558 18.939 45.4468 19.1367 45.5196C19.3344 45.5924 19.4961 45.647 19.6219 45.647C19.7656 45.647 19.8554 45.6106 19.9273 45.556L20.107 45.6834L19.0648 47.5944L18.9211 47.5398C18.9031 47.3942 18.8672 47.285 18.7953 47.194C18.7234 47.0666 18.5797 46.9574 18.4 46.83C18.2203 46.7208 18.0047 46.6116 17.7531 46.5206C17.5015 46.4296 17.232 46.3568 16.9445 46.3022C16.657 46.2476 16.3695 46.2112 16.064 46.2112C15.8484 46.2112 15.6148 46.2294 15.3812 46.2658C15.1476 46.3022 14.932 46.3568 14.7344 46.4296C14.5367 46.5024 14.3929 46.5934 14.2672 46.7026C14.1414 46.8118 14.0875 46.9574 14.0875 47.1394C14.0875 47.376 14.1773 47.558 14.357 47.6855C14.5367 47.8129 14.7703 47.9039 15.0398 47.9585C15.3273 48.0131 15.6508 48.0677 16.0101 48.0859C16.3695 48.1041 16.7469 48.1405 17.1242 48.1587C17.5015 48.1951 17.8789 48.2497 18.2383 48.3225C18.5976 48.3953 18.9211 48.5227 19.2086 48.6865C19.4961 48.8503 19.7297 49.0869 19.8914 49.3599C20.0711 49.6511 20.1609 50.0151 20.1609 50.4701C20.1609 50.9979 20.0172 51.4348 19.7476 51.7624C19.4781 52.09 19.1367 52.363 18.7234 52.5632C18.3101 52.7634 17.8609 52.8908 17.3937 52.9454C16.9086 53.0182 16.4773 53.0364 16.064 53.0364C15.489 53.0364 15.0219 53 14.6265 52.9454C14.2492 52.8726 13.9258 52.7998 13.6562 52.7088C13.4047 52.6178 13.189 52.5268 13.0453 52.454C12.9015 52.3812 12.7578 52.3448 12.65 52.3448C12.5781 52.3448 12.5062 52.3812 12.4523 52.4722L12.2367 52.3448L13.0992 50.4337Z" fill="white"/>
<path d="M31.2297 47.4124L30.9242 47.3214C30.9422 47.2668 30.9602 47.194 30.9602 47.1394C30.9602 46.9938 30.8703 46.8482 30.6907 46.7208C30.511 46.5934 30.2774 46.5024 29.9899 46.4114C29.7024 46.3204 29.3969 46.2658 29.0555 46.2294C28.7141 46.193 28.4086 46.1748 28.1031 46.1748C27.7258 46.1748 27.3664 46.2294 27.0071 46.3386C26.6477 46.4478 26.3242 46.6116 26.0367 46.83C25.7492 47.0484 25.5157 47.3396 25.3539 47.7036C25.1742 48.0677 25.0844 48.4863 25.0844 48.9959C25.0844 49.4873 25.1742 49.9241 25.3539 50.2881C25.5336 50.6521 25.7672 50.9433 26.0367 51.1617C26.3242 51.3802 26.6477 51.544 27.0071 51.6532C27.3664 51.7624 27.7438 51.817 28.1031 51.817C28.6781 51.817 29.1813 51.7624 29.6485 51.6714C30.0977 51.5804 30.493 51.4712 30.8164 51.362V50.0515H28.8938C28.75 50.0515 28.6422 50.0879 28.5703 50.1425C28.4985 50.1971 28.4625 50.3427 28.4266 50.5429H28.1571V48.5955H28.4266C28.4446 48.7593 28.4985 48.8685 28.5703 48.9231C28.6422 48.9777 28.75 48.9959 28.8938 48.9959H32.6492V49.2689C32.4516 49.3053 32.3258 49.3417 32.2719 49.3781C32.218 49.4145 32.2 49.5055 32.2 49.6329V51.362C32.2 51.4712 32.236 51.5258 32.2899 51.5622C32.3438 51.5986 32.4156 51.635 32.5055 51.6714V51.908C32.1821 52.1446 31.8227 52.3266 31.4633 52.4904C31.1039 52.636 30.7266 52.7634 30.3492 52.8544C29.9719 52.9454 29.5946 53 29.2172 53.0182C28.8399 53.0364 28.4805 53.0546 28.1211 53.0546C27.4203 53.0546 26.7735 52.9636 26.1985 52.7816C25.6235 52.5996 25.1203 52.3448 24.725 51.9808C24.3117 51.635 23.9883 51.1981 23.7727 50.7067C23.5391 50.1971 23.4313 49.6329 23.4313 48.9959C23.4313 48.3589 23.5391 47.7764 23.7727 47.285C24.0063 46.7754 24.3117 46.3568 24.725 45.9928C25.1383 45.6288 25.6235 45.374 26.1985 45.1738C26.7735 44.9918 27.4203 44.9008 28.1211 44.9008C28.5703 44.9008 28.9836 44.9372 29.3789 44.9918C29.7742 45.0464 30.1336 45.1192 30.4391 45.192C30.7446 45.2648 31.0141 45.3376 31.2117 45.4104C31.4094 45.4832 31.5532 45.5014 31.5891 45.5014C31.6789 45.5014 31.7508 45.4832 31.8047 45.4468C31.8586 45.4104 31.9125 45.374 31.9485 45.3376L32.1282 45.4468L31.2297 47.4124Z" fill="white"/>
<path d="M35.4164 52.6724C35.5422 52.6542 35.65 52.5814 35.7219 52.4722C35.7938 52.363 35.8657 52.2356 35.9375 52.09L38.7227 46.1748C38.7946 46.0474 38.8485 45.92 38.9024 45.8108C38.9563 45.7016 38.9922 45.6106 38.9922 45.5196C38.9922 45.4104 38.9563 45.3558 38.8844 45.3012C38.8125 45.2648 38.7407 45.2284 38.6508 45.2102V44.9372H41.1844V45.2102C41.1125 45.2284 41.0407 45.2648 40.9688 45.3012C40.8969 45.3376 40.861 45.4104 40.861 45.5196C40.861 45.5924 40.8789 45.6834 40.9149 45.7562C40.9508 45.829 41.0047 45.9382 41.0766 46.0838L44.2032 52.272C44.2571 52.3812 44.3289 52.4722 44.4008 52.5086C44.4907 52.5632 44.5805 52.6178 44.6883 52.6542V52.9272H42.0469V52.6542C42.0828 52.6542 42.1367 52.636 42.1907 52.5996C42.2446 52.5632 42.2805 52.5268 42.2805 52.454C42.2805 52.3448 42.2446 52.2174 42.1547 52.0536L41.5797 50.9251H37.9141L37.375 51.999C37.2672 52.2174 37.2313 52.363 37.2313 52.454C37.2313 52.5632 37.3211 52.6178 37.5188 52.6178V52.8908H35.3805V52.6724H35.4164ZM41.0766 49.8513L39.8188 47.012L38.3992 49.8513H41.0766Z" fill="white"/>
<path d="M52.9719 44.9372C53.457 44.9372 53.8883 44.9736 54.2836 45.0646C54.6789 45.1556 55.0024 45.283 55.2899 45.4832C55.5774 45.6652 55.793 45.92 55.9367 46.2112C56.0805 46.5024 56.1703 46.8846 56.1703 47.3214C56.1703 47.9949 55.9727 48.5045 55.5774 48.8503C55.182 49.2143 54.6609 49.4509 53.9961 49.5601L55.9906 52.454C56.0625 52.5632 56.1344 52.6178 56.2422 52.636C56.332 52.6542 56.4219 52.6724 56.5117 52.6724V52.9454H53.7086V52.6724C53.7984 52.6724 53.8703 52.6542 53.9422 52.6178C54.0141 52.5814 54.032 52.545 54.032 52.4904C54.032 52.4358 54.0141 52.3812 53.9781 52.3084C53.9422 52.2356 53.8703 52.1446 53.7984 52.0354L52.1453 49.6511H49.9891V52.363C49.9891 52.454 50.025 52.5268 50.0789 52.5632C50.1508 52.6178 50.2586 52.636 50.4383 52.636V52.909H47.8328V52.636C48.1203 52.636 48.2641 52.545 48.2641 52.363V45.4468C48.2641 45.2648 48.1203 45.1738 47.8328 45.1738V44.9008H52.9719V44.9372ZM52.5766 48.5045C52.9359 48.5045 53.2414 48.4681 53.475 48.4135C53.7086 48.3589 53.9063 48.2861 54.05 48.1769C54.1938 48.0677 54.2836 47.9585 54.3555 47.8128C54.4094 47.6672 54.4453 47.5216 54.4453 47.3578C54.4453 47.194 54.4094 47.0484 54.3555 46.9028C54.3016 46.7572 54.1938 46.648 54.05 46.5388C53.9063 46.4296 53.7266 46.3568 53.475 46.3022C53.2414 46.2476 52.9359 46.2112 52.5766 46.2112H49.9711V48.4681H52.5766V48.5045Z" fill="white"/>
<path d="M65.0828 44.9372C65.6399 44.9372 66.143 45.01 66.6281 45.1738C67.0953 45.3376 67.5086 45.5742 67.868 45.92C68.2274 46.2476 68.4969 46.6662 68.6946 47.1758C68.8922 47.6855 69 48.2679 69 48.9413C69 49.6147 68.8922 50.2153 68.6946 50.7067C68.4969 51.2164 68.2274 51.6168 67.868 51.9626C67.5086 52.2902 67.0953 52.545 66.6281 52.7088C66.161 52.8726 65.6399 52.9454 65.0828 52.9454H60.0875V52.6724C60.3211 52.6724 60.4289 52.5814 60.4289 52.3994V45.4832C60.4289 45.3012 60.3211 45.2102 60.0875 45.2102V44.9372H65.0828ZM64.4899 51.635C64.9571 51.635 65.3703 51.5986 65.7297 51.5076C66.0891 51.4348 66.3766 51.2892 66.6102 51.0708C66.8438 50.8705 67.0055 50.5793 67.1313 50.2335C67.2391 49.8877 67.311 49.4509 67.311 48.9231C67.311 48.3953 67.2571 47.9585 67.1313 47.6126C67.0235 47.2668 66.8438 46.9938 66.6102 46.7754C66.3766 46.5752 66.0891 46.4296 65.7297 46.3386C65.3703 46.2658 64.975 46.2112 64.4899 46.2112H62.1539V51.5986H64.4899V51.635Z" fill="white"/>
<path d="M34.3383 0C23.7907 0 15.2375 8.66346 15.2375 19.3472C15.2375 22.2957 15.8844 25.0804 17.0524 27.5738C17.1243 27.5374 17.2141 27.5192 17.286 27.4828C17.3399 27.4282 17.4118 27.3736 17.4657 27.319C16.3516 24.8984 15.7227 22.1865 15.7227 19.329C15.7227 8.91827 24.0602 0.491415 34.3383 0.491415C44.6165 0.491415 52.954 8.93647 52.954 19.3472C52.954 22.2411 52.3071 24.9712 51.1571 27.4282C51.2829 27.5374 51.4086 27.6466 51.5344 27.7558C52.7563 25.2078 53.4391 22.3685 53.4391 19.3472C53.4211 8.66346 44.886 0 34.3383 0Z" fill="url(#paint0_linear_358_1786)"/>
<path d="M53.511 32.1786V37.6569C54.1219 37.9481 54.7329 38.2575 55.3258 38.5852V33.4526C54.7149 33.034 54.1219 32.6154 53.511 32.1786Z" fill="url(#paint1_linear_358_1786)"/>
<path d="M50.636 36.3829C51.1032 36.5831 51.5883 36.7651 52.0555 36.9835V31.0865C51.5704 30.7225 51.1032 30.3403 50.636 29.9399V36.3829Z" fill="url(#paint2_linear_358_1786)"/>
<path d="M47.7789 35.3273C48.2461 35.4729 48.7133 35.6367 49.1805 35.8005V28.6295C48.7133 28.2109 48.2461 27.774 47.7789 27.319V35.3273Z" fill="url(#paint3_linear_358_1786)"/>
<path d="M44.9399 34.5082C45.4071 34.6174 45.8563 34.7448 46.3235 34.8904V25.8812C45.8563 25.3898 45.4071 24.8983 44.9399 24.3887V34.5082Z" fill="url(#paint4_linear_358_1786)"/>
<path d="M22.0117 34.8905C22.4789 34.7631 22.9461 34.6175 23.4312 34.5083V24.4615C22.9641 24.9712 22.4969 25.4808 22.0117 25.9722V34.8905Z" fill="url(#paint5_linear_358_1786)"/>
<path d="M19.1727 35.8187C19.6219 35.6549 20.0891 35.4911 20.5563 35.3455V27.4282C20.107 27.865 19.6399 28.2836 19.1727 28.7023V35.8187Z" fill="url(#paint6_linear_358_1786)"/>
<path d="M16.2797 36.9835C16.7469 36.7833 17.2321 36.5831 17.6993 36.3829V29.9763C17.2321 30.3585 16.7469 30.7407 16.2797 31.123V36.9835Z" fill="url(#paint7_linear_358_1786)"/>
<path d="M13.0094 38.567C13.6024 38.2393 14.2133 37.9481 14.8242 37.6387V32.215C14.2313 32.6518 13.6203 33.0704 13.0094 33.4708V38.567Z" fill="url(#paint8_linear_358_1786)"/>
<path d="M30.6188 33.5072C32.1641 33.307 34.7875 33.1432 37.7344 33.5254C35.2188 30.3221 34.1766 28.1198 34.1766 28.1198C34.1766 28.1198 33.1164 30.3039 30.6188 33.5072Z" fill="#CA973B"/>
<path d="M42.0649 32.2514C42.5321 32.6882 43.0172 33.1068 43.4844 33.5072V22.6779C42.9993 22.0955 42.5321 21.4948 42.0649 20.8942V32.2514Z" fill="url(#paint9_linear_358_1786)"/>
<path d="M39.2078 29.4121C39.657 29.9035 40.1422 30.3949 40.6094 30.8682V18.8922C40.1242 18.2006 39.657 17.509 39.2078 16.7991V29.4121Z" fill="url(#paint10_linear_358_1786)"/>
<path d="M36.3867 25.954C36.818 26.5546 37.2672 27.1552 37.7344 27.7376V14.3966C37.2672 13.5958 36.818 12.7768 36.3867 11.9396V25.954Z" fill="url(#paint11_linear_358_1786)"/>
<path d="M34.9313 23.6061V8.9911C34.3922 7.80806 33.8711 6.62503 33.4039 5.38739V23.6607C33.6914 23.1329 33.961 22.6051 34.1946 22.0773C34.3922 22.5869 34.6438 23.0965 34.9313 23.6061Z" fill="#CA973B"/>
<path d="M31.9305 12.2126C31.4812 13.0498 31.0141 13.887 30.5469 14.7061V27.8105C31.032 27.2098 31.4992 26.6092 31.9305 25.9904V12.2126Z" fill="url(#paint12_linear_358_1786)"/>
<path d="M27.7438 30.8682C28.193 30.4131 28.6422 29.9581 29.0914 29.4849V17.0721C28.6602 17.7456 28.211 18.4008 27.7438 19.056V30.8682Z" fill="url(#paint13_linear_358_1786)"/>
<path d="M24.8867 33.489C25.3539 33.0886 25.8211 32.6882 26.2703 32.2696V21.0216C25.8211 21.6041 25.3539 22.1865 24.8867 22.7507V33.489Z" fill="url(#paint14_linear_358_1786)"/>
</g>
<defs>
<linearGradient id="paint0_linear_358_1786" x1="12.9747" y1="13.8741" x2="55.2781" y2="13.8741" gradientUnits="userSpaceOnUse">
<stop stop-color="#FEE3B2"/>
<stop offset="1" stop-color="#BE8D34"/>
</linearGradient>
<linearGradient id="paint1_linear_358_1786" x1="12.9747" y1="35.372" x2="55.2781" y2="35.372" gradientUnits="userSpaceOnUse">
<stop stop-color="#FEE3B2"/>
<stop offset="1" stop-color="#BE8D34"/>
</linearGradient>
<linearGradient id="paint2_linear_358_1786" x1="12.9746" y1="33.4513" x2="55.2781" y2="33.4513" gradientUnits="userSpaceOnUse">
<stop stop-color="#FEE3B2"/>
<stop offset="1" stop-color="#BE8D34"/>
</linearGradient>
<linearGradient id="paint3_linear_358_1786" x1="12.9746" y1="31.5787" x2="55.2781" y2="31.5787" gradientUnits="userSpaceOnUse">
<stop stop-color="#FEE3B2"/>
<stop offset="1" stop-color="#BE8D34"/>
</linearGradient>
<linearGradient id="paint4_linear_358_1786" x1="12.9748" y1="29.6342" x2="55.2781" y2="29.6342" gradientUnits="userSpaceOnUse">
<stop stop-color="#FEE3B2"/>
<stop offset="1" stop-color="#BE8D34"/>
</linearGradient>
<linearGradient id="paint5_linear_358_1786" x1="12.9747" y1="29.6751" x2="55.278" y2="29.6751" gradientUnits="userSpaceOnUse">
<stop stop-color="#FEE3B2"/>
<stop offset="1" stop-color="#BE8D34"/>
</linearGradient>
<linearGradient id="paint6_linear_358_1786" x1="12.9747" y1="31.6214" x2="55.2781" y2="31.6214" gradientUnits="userSpaceOnUse">
<stop stop-color="#FEE3B2"/>
<stop offset="1" stop-color="#BE8D34"/>
</linearGradient>
<linearGradient id="paint7_linear_358_1786" x1="12.9747" y1="33.4754" x2="55.2781" y2="33.4754" gradientUnits="userSpaceOnUse">
<stop stop-color="#FEE3B2"/>
<stop offset="1" stop-color="#BE8D34"/>
</linearGradient>
<linearGradient id="paint8_linear_358_1786" x1="12.9747" y1="35.3918" x2="55.2781" y2="35.3918" gradientUnits="userSpaceOnUse">
<stop stop-color="#FEE3B2"/>
<stop offset="1" stop-color="#BE8D34"/>
</linearGradient>
<linearGradient id="paint9_linear_358_1786" x1="12.9747" y1="27.1984" x2="55.2781" y2="27.1984" gradientUnits="userSpaceOnUse">
<stop stop-color="#FEE3B2"/>
<stop offset="1" stop-color="#BE8D34"/>
</linearGradient>
<linearGradient id="paint10_linear_358_1786" x1="12.9747" y1="23.8332" x2="55.2781" y2="23.8332" gradientUnits="userSpaceOnUse">
<stop stop-color="#FEE3B2"/>
<stop offset="1" stop-color="#BE8D34"/>
</linearGradient>
<linearGradient id="paint11_linear_358_1786" x1="12.9747" y1="19.8358" x2="55.2781" y2="19.8358" gradientUnits="userSpaceOnUse">
<stop stop-color="#FEE3B2"/>
<stop offset="1" stop-color="#BE8D34"/>
</linearGradient>
<linearGradient id="paint12_linear_358_1786" x1="12.9747" y1="20.0147" x2="55.2781" y2="20.0147" gradientUnits="userSpaceOnUse">
<stop stop-color="#FEE3B2"/>
<stop offset="1" stop-color="#BE8D34"/>
</linearGradient>
<linearGradient id="paint13_linear_358_1786" x1="12.9747" y1="23.9694" x2="55.2781" y2="23.9694" gradientUnits="userSpaceOnUse">
<stop stop-color="#FEE3B2"/>
<stop offset="1" stop-color="#BE8D34"/>
</linearGradient>
<linearGradient id="paint14_linear_358_1786" x1="12.9747" y1="27.2595" x2="55.2781" y2="27.2595" gradientUnits="userSpaceOnUse">
<stop stop-color="#FEE3B2"/>
<stop offset="1" stop-color="#BE8D34"/>
</linearGradient>
<clipPath id="clip0_358_1786">
<rect width="69" height="53" fill="white"/>
</clipPath>
</defs>
</svg>
